<?xml version="1.0" encoding="UTF-8" standalone="no"?>
<svg id="svg4159" xmlns:rdf="http://www.w3.org/1999/02/22-rdf-syntax-ns#" xmlns="http://www.w3.org/2000/svg" height="284.51mm" width="284.51mm" version="1.1" xmlns:cc="http://creativecommons.org/ns#" xmlns:dc="http://purl.org/dc/elements/1.1/" viewBox="0 0 1008.097 1008.0969">
<g id="layer1" transform="translate(615.48 -48.314)">
<path id="path2818" stroke-linejoin="round" style="color:none;block-progression:tb;text-transform:none;text-indent:0" d="m-221.73 52.314c-14.778 0.0396-29.435 1.807-43.442 5.8375-28.014 8.0606-53.567 25.597-70.765 54.181-32.877 54.651-34.7 110.65 0 178.68 16.369 32.094 40.636 67.706 73.158 109.07-29.258-24.976-56.742-46.949-83.24-64.148-35.291-22.908-69.687-37.824-105.29-39.105-35.602-1.2779-71.318 11.705-107 40.584-37.15 30.063-53.215 71.738-52.816 113.3 0.3267 33.902 11.375 67.699 29.266 97.744-10.768 21.696-19.862 45.119-24.922 69.729-3.0275 14.725-4.727 29.694-4.6871 44.471h-0.01c0.04 14.778 1.807 29.435 5.8375 43.442 8.0606 28.014 25.597 53.567 54.181 70.765 54.651 32.877 110.65 34.7 178.68 0 32.094-16.369 67.706-40.636 109.07-73.158-24.976 29.258-46.949 56.742-64.148 83.24-22.908 35.291-37.824 69.687-39.105 105.29-1.2779 35.602 11.705 71.318 40.584 107 30.063 37.15 71.738 53.215 113.3 52.816 33.902-0.3267 67.699-11.375 97.744-29.266 21.696 10.768 45.12 19.862 69.729 24.922 14.724 3.0276 29.694 4.727 44.471 4.6872v0.01c14.778-0.04 29.435-1.807 43.442-5.8375 28.014-8.0607 53.567-25.597 70.765-54.181 32.877-54.651 34.7-110.65 0-178.68-16.369-32.094-40.636-67.706-73.158-109.07 29.258 24.976 56.742 46.949 83.24 64.148 35.291 22.908 69.687 37.825 105.29 39.105 35.602 1.2779 71.318-11.705 107-40.584 37.15-30.063 53.215-71.738 52.816-113.3-0.327-33.902-11.375-67.699-29.266-97.744 10.768-21.696 19.862-45.119 24.922-69.729 3.0276-14.725 4.727-29.694 4.6872-44.471h0.01c-0.04-14.778-1.807-29.435-5.8375-43.442-8.0606-28.014-25.597-53.567-54.181-70.765-54.651-32.877-110.65-34.7-178.68 0-32.094 16.369-67.706 40.636-109.07 73.158 24.976-29.258 46.949-56.742 64.148-83.24 22.908-35.291 37.824-69.687 39.105-105.29 1.2759-35.604-11.707-71.32-40.586-107.01-30.05-37.139-71.725-53.204-113.29-52.805-33.902 0.32687-67.699 11.375-97.744 29.266-21.696-10.769-45.12-19.863-69.729-24.923-14.724-3.0275-29.694-4.727-44.471-4.6872v-0.007zm0.1143 29.266c12.461-0.0326 25.399 1.4399 38.412 4.1156 16.376 3.3671 32.432 9.2031 47.9 15.898-10.561 8.688-20.237 18.326-28.923 28.809-5.5733-3.1936-11.071-6.609-17.034-8.917-36.158-13.994-81.781-10.524-109.29 25.151-12.59 16.326-21.194 33.55-23.207 52.816-2.0126 19.264 2.5942 39.605 13.261 61.848 21.334 44.485 66.627 98.96 143.02 181.54l10.632 11.546 10.746-11.432s12.893-13.758 27.208-30.066c15.815 17.724 26.522 28.009 26.522 28.009l11.204 10.746 10.06-11.889c29.456-34.829 81.923-85.922 117.52-138.56 17.799-26.317 31.736-53.087 35.668-80.253s-3.8903-55.287-27.323-76.252c-37.695-33.726-78.631-33.634-108.83-18.977-9.24-9.4548-21.05-18.132-33.61-26.522 22.069-10.574 45.505-17.044 68.135-17.262 34.125-0.32903 65.807 11.666 90.321 41.956 25.695 31.753 35.074 59.522 34.068 87.57-1.0067 28.047-13.087 57.577-34.411 90.428-40.31 62.103-113.2 135.21-191.95 229.67-102.56-113.9-167.64-193.58-198.35-253.79-31.87-62.483-29.929-102.1-0.9145-150.33 13.463-22.378 31.739-34.826 53.738-41.156 10.998-3.1647 22.978-4.6546 35.44-4.6872l-0.01-0.007zm115.35 34.296c14.867 8.609 26.96 17.823 36.926 27.094-7.3293 6.6262-13.867 13.772-18.977 21.149-8.8413 12.763-14.722 25.356-15.205 38.412-0.1433 3.8741 0.066 7.931 0.3429 12.004-1.7209 0.0702-3.8463 0.58642-5.4874 0.57161h-0.1143c-1.565-0.0141-3.6206-0.49043-5.2587-0.57161 0.1-3.0926 0.4865-5.8657 0.4573-9.1457-0.2009-22.543-10.959-42.361-26.866-57.839 9.0583-10.719 19.082-20.825 30.524-29.38 1.1552-0.86384 2.4842-1.449 3.6583-2.2864v-0.007zm-117.89 26.815c3.8111-0.10628 7.6811 0.11175 11.575 0.62877l-0.01-0.008c6.9226 0.91917 13.92 2.8222 20.806 5.4874 3.8076 1.4736 7.1068 3.6625 10.632 5.6017-7.9213 13.198-14.714 27.004-18.863 41.849-13.196-4.1016-28.111-8.816-36.354-10.975l-14.404-3.7726-3.5439 14.404c-6.4858 26.505-2.0741 51.226 10.403 69.393 11.4 16.597 29.628 26.948 49.958 29.266 4.6577 11.294 10.814 22.588 18.52 33.61 17.576 25.14 33.171 44.8 47.329 61.848-9.9783 11.59-13.536 15.198-18.749 20.921-68.666-74.921-109.95-126.29-127.23-162.34-9.1274-19.032-11.952-33.437-10.632-46.071 1.3199-12.633 6.7578-24.448 17.262-38.069 11.383-14.761 26.784-21.317 43.299-21.778zm220.9 1.5576c1.1288-0.0109 2.269 0.0197 3.4225 0.10003v-0.008c13.53 0.94118 28.432 7.2008 45.043 22.064 16.858 15.083 20.826 30.416 17.948 50.301s-14.49 43.753-30.981 68.135c-29.848 44.133-73.353 88.259-104.83 123.92-4.6138-4.6606-6.8707-6.8199-17.262-18.634 11.718-14.427 23.159-29.277 30.752-42.292 6.4594-11.072 16.922-30.115 26.522-52.702 1.4568 0.008 2.7363 0.43385 4.2298 0.34295 26.895-1.6299 45.805-18.598 53.045-38.412 7.2415-19.814 5.5957-41.814-1.2576-60.361l-4.1155-10.975-11.661 1.6005c-6.4788 0.9026-11.8 3.0043-19.892 5.716-1.4609-15.078-5.4435-29.824-13.261-43.556 7.0777-2.9841 14.398-5.1732 22.3-5.2445zm-47.107 20.906c6.0998 11.268 8.7743 23.991 9.26 37.269-0.2557 0.0783-0.4294 0.15067-0.6859 0.22865-10.078 3.0683-20.964 5.8538-31.667 8.1168-0.1318-2.3627-0.8811-5.02-0.8003-7.2022 0.1244-3.3576 3.3008-13.157 9.946-22.75 3.723-5.3744 8.5808-10.728 13.947-15.662zm-107.35 6.9664c9.1274 10.253 14.76 22.086 14.862 33.496 0.018 2.0724-0.1873 3.5549-0.2287 5.4874-9.5382-1.8347-19.248-4.3142-28.809-6.8593 3.1066-11.135 8.244-21.796 14.176-32.124zm-70.193 46.186c6.4919 2.0066 14.097 4.2485 22.978 6.9736-0.938 12.154-0.602 24.517 1.6005 37.04-6.5546-2.9855-12.228-7.44-16.462-13.604-5.3064-7.7256-8.4721-17.991-8.1168-30.409zm226.36 1.9434c1.3572 9.4753 1.523 19.143-1.2576 26.751-3.3053 9.0444-8.2618 15.06-18.749 17.72 0.7803-2.5297 1.8042-4.8562 2.5151-7.4308 2.9554-10.705 5.0497-21.996 6.2876-33.382 2.9825-0.99604 6.9198-2.2283 9.4887-3.0867 0.9449-0.3157 0.8093-0.28022 1.7148-0.57161zm-174.68 13.01c9.7182 2.555 19.46 5.0984 29.495 6.9736-2.1789 7.536-5.0689 12.898-8.2311 16.348-4.1631 4.5417-10.207 6.8889-17.491 8.2311-2.6053-10.652-4.1326-21.224-3.7726-31.553zm132.27 0.11426c-1.0175 5.3605-1.8269 10.728-3.3153 16.119-1.1012 3.9886-2.5861 7.7512-3.8869 11.661-4.8025-3.2139-8.8113-7.6937-12.347-13.49-1.4988-2.4572-2.6959-5.3065-3.8869-8.1168 8.1455-1.7362 15.782-3.997 23.436-6.1733zm-53.159 10.403c2.2705 6.549 4.9866 13.023 8.6884 19.092 6.2619 10.266 15.583 19.14 26.98 25.151-8.3075 18.78-17.178 35.101-22.978 45.042-5.5046 9.4354-14.825 21.542-24.808 33.953-12.762-15.604-26.702-33.362-42.299-55.674-4.4009-6.2952-7.2296-12.511-10.403-18.749 10.725-2.7484 20.688-7.6235 28.58-16.234 7.6677-8.3654 12.738-19.264 15.891-32.467 2.8474 0.17157 5.7868 0.43216 8.574 0.45729 3.8694 0.0366 7.8392-0.29522 11.775-0.57161zm-360.48 82.225c1.7519-0.0197 3.5058 0.001 5.2588 0.0642 28.047 1.0067 57.577 13.087 90.428 34.411 62.103 40.31 135.21 113.2 229.67 191.95-113.9 102.56-193.58 167.64-253.79 198.35-62.483 31.87-102.1 29.929-150.33 0.91456-22.378-13.463-34.826-31.739-41.156-53.738-3.1647-10.998-4.6546-22.978-4.6871-35.44l-0.01 0.008c-0.033-12.461 1.4398-25.399 4.1155-38.412 3.3671-16.376 9.2031-32.433 15.898-47.9 8.688 10.561 18.326 20.237 28.809 28.923-3.1936 5.5734-6.609 11.071-8.917 17.034-13.994 36.158-10.524 81.781 25.151 109.29 16.326 12.59 33.55 21.194 52.816 23.207 19.264 2.0126 39.605-2.5942 61.848-13.261 44.484-21.334 98.96-66.627 181.54-143.02l11.546-10.632-11.432-10.746s-13.758-12.893-30.066-27.208c17.724-15.815 28.009-26.522 28.009-26.522l10.746-11.203-11.889-10.06c-34.829-29.456-85.922-81.924-138.56-117.52-26.317-17.799-53.087-31.736-80.253-35.668-27.166-3.9319-55.287 3.8904-76.252 27.323-33.726 37.695-33.634 78.631-18.977 108.83-9.4548 9.24-18.132 21.05-26.522 33.61-10.574-22.069-17.044-45.505-17.262-68.135-0.3289-34.125 11.666-65.807 41.956-90.321 29.768-24.089 56.033-33.837 82.311-34.132zm701.27 4.6085c23.744 0.12832 45.706 7.864 69.822 22.371 22.378 13.463 34.826 31.739 41.156 53.738 3.1647 10.998 4.6546 22.978 4.6872 35.439l0.008-0.008c0.0329 12.461-1.4399 25.399-4.1156 38.412-3.3671 16.376-9.2031 32.433-15.898 47.9-8.688-10.561-18.326-20.237-28.809-28.923 3.1936-5.5734 6.609-11.071 8.917-17.034 13.995-36.158 10.524-81.781-25.15-109.29-16.326-12.59-33.55-21.194-52.816-23.207-19.264-2.0127-39.605 2.5941-61.848 13.261-44.485 21.334-98.96 66.627-181.54 143.02l-11.546 10.632 11.432 10.746s13.758 12.893 30.066 27.208c-17.724 15.815-28.009 26.522-28.009 26.522l-10.745 11.2 11.889 10.06c34.829 29.456 85.922 81.923 138.56 117.52 26.317 17.799 53.087 31.736 80.253 35.668 27.166 3.9319 55.287-3.8904 76.252-27.323 33.726-37.695 33.635-78.631 18.977-108.83 9.4548-9.24 18.132-21.05 26.522-33.61 10.573 22.069 17.044 45.505 17.262 68.135 0.32887 34.125-11.666 65.807-41.956 90.321-31.753 25.695-59.522 35.074-87.57 34.068-28.047-1.007-57.577-13.088-90.428-34.411-62.095-40.32-135.2-113.21-229.66-191.96 113.9-102.56 193.58-167.64 253.79-198.35 31.242-15.935 56.767-23.414 80.511-23.286zm-701.49 46.279c3.4368 0.0185 7.0035 0.31781 10.732 0.85744 19.885 2.8779 43.753 14.49 68.135 30.981 44.133 29.848 88.26 73.353 123.92 104.83-4.6606 4.6138-6.8199 6.8708-18.634 17.262-14.428-11.718-29.277-23.159-42.292-30.752-11.072-6.4594-30.115-16.922-52.702-26.522 0.01-1.4568 0.434-2.7363 0.3429-4.2299-1.6298-26.895-18.598-45.805-38.412-53.045-19.814-7.2416-41.814-5.5957-60.362 1.2575l-10.975 4.1156 1.6005 11.661c0.9026 6.4788 3.0043 11.8 5.716 19.892-15.078 1.4609-29.824 5.4435-43.556 13.261-2.984-7.0777-5.1731-14.398-5.2444-22.3-0.011-1.1288 0.018-2.269 0.1001-3.4224h-0.01c0.9411-13.53 7.2007-28.432 22.064-45.042 12.255-13.697 24.677-18.886 39.569-18.806zm691.38 1.8649c1.6402 0.0313 3.2436 0.13506 4.8229 0.3001 12.633 1.3199 24.448 6.7577 38.069 17.262 14.761 11.383 21.317 26.784 21.778 43.299 0.10648 3.8111-0.11158 7.681-0.62873 11.575l0.008-0.008c-0.91917 6.9226-2.8222 13.92-5.4874 20.806-1.4736 3.8075-3.6625 7.1067-5.6017 10.632-13.198-7.9213-27.004-14.714-41.849-18.863 4.1017-13.196 8.8161-28.111 10.975-36.354l3.7726-14.404-14.404-3.5439c-26.505-6.4858-51.226-2.074-69.393 10.403-16.597 11.4-26.948 29.628-29.266 49.958-11.294 4.6577-22.588 10.814-33.61 18.52-25.14 17.575-44.8 33.171-61.848 47.329-11.59-9.9783-15.198-13.536-20.921-18.749 74.922-68.666 126.29-109.95 162.34-127.23 16.653-7.9865 29.767-11.151 41.248-10.932zm-10.946 57.11c-2.0066 6.492-4.2485 14.097-6.9736 22.979-12.154-0.93801-24.517-0.60193-37.04 1.6005 2.9856-6.5545 7.44-12.228 13.604-16.462 7.7255-5.3064 17.991-8.472 30.409-8.1168zm-652.09 5.666c4.5524 0.13645 8.8713 0.78899 12.675 2.1793 9.0443 3.3054 15.06 8.2618 17.72 18.749-2.5296-0.78031-4.8561-1.8042-7.4308-2.5151-10.705-2.9555-21.996-5.0497-33.382-6.2876-0.996-2.9825-2.2283-6.9198-3.0866-9.4886-0.3157-0.94494-0.2802-0.80932-0.5716-1.7148 4.7376-0.67861 9.5234-1.0582 14.076-0.92175zm-31.903 40.477c0.078 0.25571 0.1507 0.4294 0.2287 0.68592 3.0682 10.078 5.8538 20.964 8.1168 31.667-2.3627 0.13176-5.0201 0.88106-7.2022 0.80024-3.3576-0.12441-13.157-3.3007-22.75-9.9459-5.3744-3.723-10.728-8.5808-15.662-13.947 11.268-6.0998 23.991-8.7742 37.269-9.26zm30.974 2.858c5.3605 1.0175 10.728 1.827 16.119 3.3153 3.9887 1.1012 7.7512 2.5861 11.661 3.8869-3.2139 4.8026-7.6937 8.8113-13.49 12.347-2.4572 1.4988-5.3065 2.6959-8.1168 3.8869-1.7362-8.1455-3.997-15.782-6.1733-23.436zm638.04 2.6722c-2.555 9.7182-5.0983 19.46-6.9736 29.495-7.536-2.1789-12.898-5.0689-16.348-8.2311-4.5417-4.1631-6.8889-10.207-8.2311-17.491 10.652-2.6053 21.224-4.1326 31.553-3.7726zm29.038 4.3442c11.135 3.1066 21.796 8.2439 32.124 14.176-10.253 9.1274-22.086 14.76-33.496 14.862-2.0724 0.0182-3.5548-0.18726-5.4874-0.22863 1.8347-9.5382 4.3142-19.248 6.8593-28.809zm-88.37 9.9459c2.7484 10.725 7.6235 20.688 16.234 28.58 8.3654 7.6677 19.264 12.738 32.467 15.891-0.17156 2.8474-0.43214 5.7869-0.45728 8.5741-0.0366 3.8694 0.29523 7.8391 0.57161 11.775-6.549 2.2705-13.023 4.9866-19.092 8.6884-10.266 6.2619-19.14 15.583-25.151 26.98-18.78-8.3076-35.101-17.178-45.042-22.978-9.4354-5.5046-21.542-14.825-33.953-24.808 15.604-12.762 33.362-26.702 55.674-42.299 6.2951-4.4009 12.51-7.2296 18.749-10.403zm-524.06 0.52874c18.78 8.3076 35.101 17.178 45.042 22.979 9.4354 5.5046 21.542 14.825 33.953 24.808-15.604 12.762-33.362 26.702-55.674 42.299-6.2952 4.4009-12.511 7.2296-18.749 10.403-2.7484-10.725-7.6234-20.688-16.234-28.58-8.3654-7.6677-19.264-12.738-32.467-15.891 0.1716-2.8474 0.4322-5.7868 0.4573-8.5741 0.037-3.8694-0.2952-7.8391-0.5716-11.775 6.549-2.2705 13.023-4.9866 19.092-8.6884 10.266-6.2618 19.14-15.583 25.151-26.98zm-145.07 7.8881c6.6262 7.3294 13.772 13.867 21.149 18.977 12.763 8.8413 25.356 14.721 38.412 15.205 3.8741 0.14332 7.931-0.0665 12.004-0.34297 0.07 1.7209 0.5864 3.8463 0.5716 5.4874v0.1143c-0.014 1.5651-0.4904 3.6206-0.5716 5.2588-3.0926-0.0999-5.8656-0.48651-9.1457-0.45728-22.543 0.20085-42.361 10.959-57.839 26.865-10.72-9.0583-20.825-19.082-29.38-30.524-0.8638-1.1552-1.449-2.4841-2.2864-3.6583h-0.01c8.609-14.867 17.823-26.96 27.094-36.926zm814.2 13.075c10.719 9.0582 20.825 19.082 29.38 30.524 0.86382 1.1552 1.449 2.4841 2.2864 3.6583h0.008c-8.609 14.867-17.823 26.96-27.094 36.926-6.6262-7.3294-13.772-13.867-21.149-18.977-12.763-8.8413-25.356-14.721-38.412-15.205-3.8741-0.14333-7.9309 0.0667-12.004 0.343-0.0702-1.7209-0.58642-3.8463-0.5716-5.4874v-0.11441c0.0141-1.5651 0.49042-3.6206 0.5716-5.2588 3.0926 0.0999 5.8657 0.48655 9.1457 0.45729 22.543-0.20085 42.361-10.959 57.839-26.865zm-567.15 45.686c11.59 9.9783 15.198 13.536 20.921 18.749-74.921 68.666-126.29 109.95-162.34 127.23-19.032 9.1274-33.437 11.952-46.071 10.632-12.634-1.3199-24.448-6.7577-38.069-17.262-14.761-11.383-21.317-26.784-21.778-43.299-0.1064-3.8111 0.1116-7.6811 0.6288-11.575l-0.01 0.008c0.9192-6.9225 2.8222-13.92 5.4874-20.806 1.4737-3.8075 3.6625-7.1067 5.6017-10.632 13.198 7.9212 27.004 14.714 41.849 18.863-4.1017 13.196-8.8161 28.111-10.975 36.354l-3.7726 14.405 14.404 3.544c26.505 6.4858 51.226 2.074 69.393-10.403 16.597-11.4 26.948-29.628 29.266-49.958 11.294-4.6577 22.588-10.814 33.61-18.52 25.14-17.575 44.8-33.171 61.848-47.329zm162.43 4.137c102.57 113.9 167.65 193.58 198.36 253.79 31.87 62.483 29.929 102.1 0.9146 150.33-13.463 22.378-31.739 34.826-53.738 41.156-10.998 3.1647-22.978 4.6546-35.44 4.6871l0.01 0.01c-12.461 0.033-25.399-1.4399-38.412-4.1155-16.376-3.3671-32.433-9.2031-47.9-15.898 10.561-8.688 20.237-18.326 28.923-28.809 5.5734 3.1936 11.071 6.609 17.034 8.917 36.158 13.994 81.781 10.524 109.29-25.151 12.59-16.326 21.194-33.55 23.207-52.816 2.0126-19.264-2.5942-39.605-13.261-61.848-21.334-44.485-66.627-98.96-143.02-181.54l-10.632-11.546-10.746 11.432s-12.893 13.758-27.208 30.066c-15.815-17.724-26.522-28.009-26.522-28.009l-11.203-10.746-10.06 11.889c-29.456 34.829-81.923 85.922-117.52 138.56-17.799 26.317-31.736 53.087-35.668 80.253-3.9319 27.166 3.8904 55.287 27.323 76.252 37.695 33.726 78.631 33.635 108.83 18.977 9.2401 9.4548 21.05 18.132 33.61 26.523-22.069 10.574-45.505 17.044-68.135 17.262-34.125 0.3289-65.807-11.666-90.321-41.956-25.695-31.753-35.074-59.522-34.068-87.57 1.0067-28.047 13.087-57.577 34.411-90.428 40.31-62.103 113.2-135.21 191.95-229.67zm162.14 0.70737c14.428 11.718 29.277 23.159 42.292 30.752 11.072 6.4594 30.115 16.922 52.702 26.522-0.01 1.4568-0.434 2.7363-0.343 4.2299 1.6299 26.895 18.598 45.805 38.412 53.045 19.814 7.2416 41.814 5.5956 60.361-1.2576l10.975-4.1156-1.6005-11.661c-0.9026-6.4788-3.0043-11.8-5.7161-19.892 15.078-1.4608 29.824-5.4435 43.556-13.261 2.9841 7.0777 5.1732 14.398 5.2445 22.3 0.0107 1.1288-0.0185 2.269-0.10009 3.4225h0.008c-0.94116 13.53-7.2008 28.432-22.064 45.042-15.083 16.858-30.416 20.826-50.301 17.948-19.885-2.8779-43.753-14.49-68.136-30.981-44.133-29.848-88.259-73.353-123.92-104.83 4.6606-4.6138 6.8199-6.8708 18.634-17.262zm-508.97 9.903c2.0724-0.0182 3.5549 0.18731 5.4874 0.22864-1.8347 9.5382-4.3142 19.248-6.8593 28.809-11.135-3.1066-21.796-8.2439-32.124-14.176 10.253-9.1274 22.086-14.76 33.496-14.862zm34.639 3.8869c7.5361 2.179 12.898 5.0689 16.348 8.2311 4.5418 4.1631 6.8889 10.207 8.2312 17.491-10.653 2.6053-21.224 4.1326-31.553 3.7726 2.555-9.7182 5.0983-19.46 6.9735-29.495zm660.9 1.872c3.3576 0.12441 13.157 3.3008 22.75 9.946 5.3744 3.723 10.728 8.5808 15.662 13.947-11.268 6.0998-23.991 8.7743-37.269 9.26-0.0783-0.25568-0.15067-0.42937-0.22863-0.68592-3.0683-10.078-5.8538-20.964-8.1168-31.667 2.3627-0.13176 5.0201-0.88107 7.2022-0.80029zm-36.004 6.8593c1.7362 8.1455 3.997 15.782 6.1733 23.436-5.3605-1.0176-10.728-1.827-16.119-3.3154-3.9886-1.1012-7.7512-2.5861-11.661-3.8869 3.2139-4.8026 7.6937-8.8113 13.49-12.347 2.4572-1.4988 5.3065-2.6959 8.1168-3.8869zm-25.151 45.843c2.5297 0.78032 4.8562 1.8042 7.4309 2.5151 10.705 2.9554 21.996 5.0497 33.382 6.2876 0.99604 2.9825 2.2283 6.9198 3.0867 9.4887 0.31569 0.9449 0.28022 0.80929 0.57159 1.7148-9.4753 1.3572-19.143 1.523-26.751-1.2575-9.0444-3.3054-15.06-8.2618-17.72-18.749zm-577.68 2.0149c-2.9856 6.5545-7.44 12.228-13.604 16.462-7.7255 5.3063-17.991 8.472-30.409 8.1168 2.0066-6.492 4.2486-14.097 6.9736-22.979 12.154 0.938 24.517 0.60195 37.04-1.6005zm325.46 49.522c68.666 74.921 109.95 126.29 127.23 162.34 9.1274 19.032 11.952 33.437 10.632 46.071-1.3199 12.633-6.7577 24.448-17.262 38.069-11.382 14.761-26.784 21.317-43.299 21.778-3.8111 0.10648-7.6811-0.11158-11.575-0.62874l0.01 0.008c-6.9226-0.91922-13.92-2.8222-20.806-5.4874-3.8076-1.4737-7.1068-3.6625-10.632-5.6017 7.9213-13.198 14.714-27.004 18.863-41.849 13.196 4.1017 28.111 8.8161 36.354 10.975l14.404 3.7726 3.5439-14.404c6.4858-26.505 2.0741-51.226-10.403-69.393-11.4-16.597-29.628-26.948-49.958-29.266-4.6577-11.294-10.814-22.588-18.52-33.61-17.576-25.14-33.171-44.8-47.329-61.848 9.9783-11.59 13.536-15.198 18.749-20.921zm-74.194 2.1792c4.6138 4.6606 6.8708 6.8199 17.262 18.634-11.718 14.427-23.159 29.277-30.752 42.292-6.4594 11.072-16.922 30.115-26.522 52.702-1.4568-0.008-2.7363-0.43387-4.2299-0.34297-26.895 1.6299-45.805 18.598-53.045 38.412-7.2416 19.814-5.5957 41.814 1.2575 60.361l4.1155 10.975 11.661-1.6005c6.4788-0.9026 11.8-3.0043 19.892-5.716 1.4609 15.078 5.4435 29.824 13.261 43.556-7.0777 2.9841-14.398 5.1732-22.3 5.2444-1.1288 0.0107-2.269-0.0185-3.4225-0.10008v0.008c-13.53-0.94116-28.432-7.2008-45.042-22.064-16.858-15.083-20.826-30.416-17.948-50.301 2.8779-19.885 14.49-43.753 30.981-68.135 29.848-44.133 73.353-88.259 104.83-123.92zm36.583 41.727c12.762 15.604 26.703 33.362 42.299 55.674 4.4009 6.2951 7.2296 12.511 10.403 18.749-10.725 2.7484-20.688 7.6235-28.58 16.234-7.6677 8.3654-12.738 19.264-15.891 32.467-2.8474-0.17157-5.7868-0.43216-8.574-0.45729-3.8694-0.0366-7.8392 0.29522-11.775 0.5716-2.2705-6.549-4.9866-13.023-8.6884-19.092-6.2619-10.266-15.583-19.14-26.98-25.151 8.3076-18.78 17.178-35.101 22.979-45.042 5.5046-9.4354 14.825-21.542 24.808-33.953zm63.22 102.2c2.6053 10.653 4.1326 21.224 3.7726 31.553-9.7182-2.555-19.46-5.0984-29.495-6.9736 2.1789-7.536 5.0689-12.898 8.2311-16.348 4.1631-4.5418 10.207-6.8889 17.491-8.2311zm-150.9 0.1143c-0.7803 2.5297-1.8042 4.8562-2.515 7.4309-2.9555 10.705-5.0497 21.996-6.2877 33.382-2.9825 0.99602-6.9198 2.2283-9.4886 3.0867-0.945 0.31572-0.8094 0.28022-1.7149 0.57161-1.3572-9.4753-1.523-19.143 1.2576-26.751 3.3054-9.0444 8.2618-15.06 18.749-17.72zm181.77 2.4008c6.5545 2.9856 12.228 7.44 16.462 13.604 5.3063 7.7255 8.472 17.991 8.1168 30.409-6.492-2.0066-14.097-4.2485-22.978-6.9736 0.9379-12.154 0.6019-24.517-1.6005-37.04zm-152.16 1.1432c4.8026 3.2139 8.8114 7.6937 12.347 13.49 1.4988 2.4572 2.6959 5.3065 3.8869 8.1168-8.1455 1.7362-15.782 3.997-23.436 6.1733 1.0175-5.3605 1.827-10.728 3.3153-16.119 1.1013-3.9886 2.5861-7.7512 3.8869-11.661zm57.504 46.071h0.1143c1.5651 0.0141 3.6206 0.49044 5.2588 0.57162-0.1 3.0926-0.4865 5.8657-0.4573 9.1457 0.2008 22.543 10.959 42.361 26.865 57.839-9.0582 10.719-19.082 20.825-30.524 29.38-1.1552 0.86382-2.4841 1.449-3.6583 2.2864v0.008c-14.867-8.609-26.96-17.823-36.926-27.094 7.3293-6.6262 13.867-13.772 18.977-21.149 8.8413-12.763 14.721-25.356 15.205-38.412 0.1434-3.8741-0.066-7.9309-0.3429-12.004 1.7209-0.0701 3.8463-0.58642 5.4874-0.57161zm34.411 4.0012c9.5382 1.8347 19.248 4.3142 28.809 6.8593-3.1066 11.135-8.2439 21.796-14.176 32.124-9.1274-10.253-14.76-22.086-14.862-33.496-0.018-2.0724 0.1873-3.5548 0.2286-5.4874zm-69.621 0.33583c0.1317 2.3627 0.881 5.02 0.8002 7.2022-0.1244 3.3576-3.3007 13.157-9.9459 22.75-3.7231 5.3744-8.5809 10.728-13.947 15.662-6.0998-11.268-8.7742-23.991-9.26-37.269 0.2557-0.0783 0.4294-0.15067 0.6859-0.22863 10.078-3.0683 20.964-5.8538 31.667-8.1168z" stroke="#246446
" stroke-width="8" fill="none"/>
</g>
</svg>
