<?xml version="1.0" encoding="UTF-8" standalone="no"?>
<!DOCTYPE svg PUBLIC "-//W3C//DTD SVG 1.1//EN" "http://www.w3.org/Graphics/SVG/1.1/DTD/svg11.dtd">
<svg viewBox="0 0 500 500" xmlns:xlink="http://www.w3.org/1999/xlink" height="500.0pt" width="500.0pt" xmlns="http://www.w3.org/2000/svg" version="1.1"><defs>
<path d="M 0.00 0.00 L 500.00 0.00 L 500.00 500.00 L 0.00 500.00 L 0.00 0.00 Z" id="p0" />
<path d="M 135.00 24.37 C 154.70 23.85 174.67 29.48 191.72 39.25 C 207.64 48.41 221.16 61.51 230.99 77.01 C 241.65 94.08 247.80 113.85 248.23 134.00 C 248.17 166.75 248.22 199.27 248.22 232.00 C 248.28 236.51 247.97 240.90 248.53 245.39 C 248.41 246.86 248.26 248.34 248.10 249.81 C 210.73 249.86 173.37 249.80 136.00 249.84 C 112.32 250.44 88.47 242.53 69.33 228.68 C 40.76 208.21 22.75 174.23 22.57 139.00 C 21.88 114.52 29.83 90.06 44.32 70.36 C 56.83 53.45 73.88 40.02 93.46 32.23 C 106.65 27.10 120.81 24.03 135.00 24.37 Z" id="p1" />
<path d="M 361.36 24.45 C 368.52 24.37 375.93 24.08 383.03 25.12 C 402.98 27.65 422.15 35.62 437.99 48.03 C 452.92 59.82 464.96 75.07 472.39 92.62 C 484.79 121.06 484.50 154.54 471.87 182.85 C 462.47 204.13 446.24 222.38 426.22 234.22 C 409.09 244.40 388.97 250.19 369.00 249.84 C 331.29 249.80 293.57 249.86 255.86 249.81 C 255.38 246.19 255.72 242.63 255.79 239.00 C 255.75 204.27 255.85 169.76 255.76 135.00 C 256.11 102.05 271.87 70.11 297.47 49.44 C 315.46 34.80 338.18 25.78 361.36 24.45 Z" id="p2" />
<path d="M 143.00 257.17 C 178.05 257.19 213.09 257.15 248.14 257.18 C 248.66 260.81 248.26 264.37 248.20 268.00 C 248.25 303.05 248.16 337.91 248.23 373.00 C 247.78 393.85 241.22 414.34 229.82 431.78 C 218.33 449.20 202.15 463.41 183.17 472.17 C 153.55 486.31 117.50 486.23 87.80 472.31 C 67.36 462.83 49.86 446.95 38.34 427.59 C 20.89 398.72 17.66 362.10 29.55 330.56 C 36.19 312.40 47.83 296.05 62.59 283.59 C 79.99 268.86 101.89 259.56 124.62 257.50 C 130.70 256.97 136.77 257.22 143.00 257.17 Z" id="p3" />
<path d="M 255.68 257.02 C 295.45 256.99 335.24 256.99 375.00 257.02 C 401.86 258.16 427.51 269.61 446.96 288.04 C 464.61 304.87 476.79 328.12 480.40 352.25 C 485.63 384.86 475.97 419.30 454.08 444.09 C 450.82 448.32 447.35 451.87 443.11 455.11 C 432.12 464.95 418.91 472.35 404.98 477.10 C 380.56 485.32 353.27 484.95 329.09 476.07 C 324.28 474.35 319.87 471.89 315.26 469.73 C 301.52 462.69 290.29 452.53 280.36 440.84 C 275.86 435.63 272.50 429.78 269.04 423.85 C 266.19 419.11 264.48 413.75 262.19 408.68 C 257.65 396.05 255.34 382.42 255.58 369.00 C 255.66 334.48 255.56 301.38 255.59 266.97 C 255.46 263.63 255.23 260.35 255.68 257.02 Z" id="p4" /></defs><g stroke-width="10pt">
<!-- <use stroke="#ffffff" xlink:href="#p0" /> -->
<use stroke="#2b9777" xlink:href="#p1" />
<use stroke="#8dc497" xlink:href="#p2" />
<use stroke="#59b9b1" xlink:href="#p3" />
<use stroke="#41968d" xlink:href="#p4" /></g>
<g>
<use xlink:href="#p0" fill="none" />
<use xlink:href="#p1" fill="#2b9777" />
<use xlink:href="#p2" fill="#8dc497" />
<use xlink:href="#p3" fill="#59b9b1" />
<use xlink:href="#p4" fill="#41968d" /></g></svg>